<svg width="21" height="20" viewBox="0 0 21 20" fill="none" xmlns="http://www.w3.org/2000/svg">
<path d="M10.3153 9.58464V17.5013M6.98193 4.16797L13.6486 7.91797" stroke="black" stroke-width="1.66667"/>
<path d="M9.06527 2.38966C9.83877 1.94307 10.7918 1.94307 11.5653 2.38966L16.2821 5.11295C17.0556 5.55953 17.5321 6.38485 17.5321 7.27801V12.7246C17.5321 13.6178 17.0556 14.4431 16.2821 14.8897L11.5653 17.6129C10.7918 18.0595 9.83877 18.0595 9.06527 17.6129L4.34839 14.8897C3.57489 14.4431 3.09839 13.6178 3.09839 12.7246L3.09839 7.27801C3.09839 6.38485 3.57489 5.55953 4.34839 5.11295L9.06527 2.38966Z" stroke="black" stroke-width="1.66667"/>
<path d="M17.3986 6.25195L11.0951 9.58911C10.6073 9.84736 10.0233 9.84736 9.53545 9.58911L3.23193 6.25195" stroke="black" stroke-width="1.66667"/>
</svg>
