<svg width="33" height="32" viewBox="0 0 33 32" fill="none" xmlns="http://www.w3.org/2000/svg">
<path d="M25.8089 25.5283C25.6734 23.1895 23.6391 21.3327 21.1494 21.3327H11.8161C9.32643 21.3327 7.29213 23.1895 7.1566 25.5283M25.8089 25.5283C28.2816 23.1079 29.8161 19.7328 29.8161 15.9993C29.8161 8.63555 23.8465 2.66602 16.4827 2.66602C9.11895 2.66602 3.14941 8.63555 3.14941 15.9993C3.14941 19.7328 4.68391 23.1079 7.1566 25.5283M25.8089 25.5283C23.4045 27.8818 20.1131 29.3327 16.4827 29.3327C12.8524 29.3327 9.56098 27.8818 7.1566 25.5283M20.4827 13.3327C20.4827 15.5418 18.6919 17.3327 16.4827 17.3327C14.2736 17.3327 12.4827 15.5418 12.4827 13.3327C12.4827 11.1235 14.2736 9.33268 16.4827 9.33268C18.6919 9.33268 20.4827 11.1235 20.4827 13.3327Z" stroke="#170033" stroke-width="2.66667" stroke-linecap="round" stroke-linejoin="round"/>
</svg>
