<svg width="23" height="23" viewBox="0 0 23 23" fill="none" xmlns="http://www.w3.org/2000/svg">
<path d="M9.77051 3.63379C10.9809 3.35131 12.2464 3.37141 13.4463 3.6875C15.0229 4.10294 16.3 4.68954 17.4141 5.53809C18.5225 6.38246 19.4244 7.45112 20.2959 8.76758C21.2198 10.1634 21.3253 12.005 20.4287 13.4805C19.1273 15.6218 17.5204 17.0373 14.748 18.1953C12.7434 19.0325 10.4736 19.0544 8.45215 18.2666C5.82895 17.244 4.03902 15.8803 2.58203 13.4111C1.75036 12.0016 1.83811 10.2665 2.67676 8.92188C3.58951 7.45845 4.54418 6.31338 5.70312 5.44141C6.86764 4.56538 8.18617 4.00366 9.77051 3.63379ZM12.9365 5.62207C12.0502 5.3886 11.1162 5.37421 10.2256 5.58203C8.84818 5.90358 7.80159 6.36652 6.90625 7.04004C6.00544 7.71774 5.20478 8.64851 4.37402 9.98047C3.90229 10.7368 3.8773 11.6714 4.30371 12.3945C5.50138 14.4243 6.91124 15.5194 9.17871 16.4033C10.7204 17.004 12.4534 16.9862 13.9775 16.3496C16.3882 15.3427 17.6534 14.1959 18.7197 12.4414C19.1868 11.6724 19.1535 10.6663 18.6279 9.87207C17.83 8.66669 17.0724 7.79188 16.2021 7.12891C15.3371 6.47008 14.3121 5.98455 12.9365 5.62207ZM11.4492 7.4375C13.5198 7.43797 15.1981 9.11687 15.1982 11.1875C15.1982 13.2582 13.5198 14.937 11.4492 14.9375C9.37824 14.9375 7.69927 13.2585 7.69922 11.1875C7.69932 9.11658 9.37827 7.4375 11.4492 7.4375ZM11.4492 9.4375C10.4828 9.4375 9.69932 10.2211 9.69922 11.1875C9.69927 12.1539 10.4828 12.9375 11.4492 12.9375C12.4152 12.937 13.1982 12.1536 13.1982 11.1875C13.1981 10.2214 12.4152 9.43797 11.4492 9.4375Z" fill="#170033"/>
</svg>
