<svg width="15" height="15" viewBox="0 0 15 15" fill="none" xmlns="http://www.w3.org/2000/svg">
<path d="M11.5006 5.46094C12.1586 5.95443 12.7529 6.52693 13.2701 7.16522C13.34 7.25155 13.375 7.35624 13.375 7.46094M11.5006 9.46094C12.1586 8.96744 12.7529 8.39494 13.2701 7.75665C13.34 7.67032 13.375 7.56563 13.375 7.46094M13.375 7.46094H4.70833M8.04167 2.47946C7.33399 1.84608 6.39947 1.46094 5.375 1.46094C3.16586 1.46094 1.375 3.2518 1.375 5.46094V9.46094C1.375 11.6701 3.16586 13.4609 5.375 13.4609C6.39947 13.4609 7.33399 13.0758 8.04167 12.4424" stroke="#303A47" stroke-width="2" stroke-linecap="round" stroke-linejoin="round"/>
</svg>
