<svg width="18" height="16" viewBox="0 0 18 16" fill="none" xmlns="http://www.w3.org/2000/svg">
<path d="M6.39258 1.97264V12.806M11.3926 4.07921V14.9125M7.58515 2.37222L10.2122 3.68576C10.6375 3.8984 10.8501 4.00471 11.0728 4.04824C11.284 4.08953 11.5012 4.08953 11.7124 4.04824C11.935 4.00471 12.1476 3.8984 12.5729 3.68576C13.8153 3.06457 14.4365 2.75397 14.942 2.82005C15.4157 2.88199 15.8401 3.14429 16.1074 3.54035C16.3926 3.96289 16.3926 4.65741 16.3926 6.04644V10.9612C16.3926 11.5594 16.3926 11.8586 16.3015 12.1227C16.2209 12.3562 16.0895 12.5689 15.9166 12.7454C15.7211 12.945 15.4536 13.0788 14.9185 13.3463L12.5851 14.513C12.1479 14.7316 11.9292 14.8409 11.6999 14.884C11.4968 14.9221 11.2884 14.9221 11.0852 14.884C10.8559 14.8409 10.6373 14.7316 10.2 14.513L7.57292 13.1994C7.14765 12.9868 6.93502 12.8805 6.71236 12.837C6.50117 12.7957 6.28398 12.7957 6.0728 12.837C5.85014 12.8805 5.63751 12.9868 5.21224 13.1994C3.96985 13.8206 3.34866 14.1312 2.8432 14.0651C2.36942 14.0032 1.94501 13.7409 1.67773 13.3449C1.39258 12.9223 1.39258 12.2278 1.39258 10.8388V5.92402C1.39258 5.32576 1.39258 5.02663 1.48367 4.76254C1.56422 4.529 1.69569 4.31628 1.86855 4.13979C2.06402 3.94021 2.33157 3.80644 2.86667 3.53888L5.20001 2.37222C5.63728 2.15358 5.85592 2.04426 6.08525 2.00124C6.28836 1.96313 6.49679 1.96313 6.69991 2.00124C6.92924 2.04426 7.14787 2.15358 7.58515 2.37222Z" stroke="#170033" stroke-width="2" stroke-linecap="round" stroke-linejoin="round"/>
</svg>
