<svg width="18" height="18" viewBox="0 0 18 18" fill="none" xmlns="http://www.w3.org/2000/svg">
<path d="M5.55924 5.60807H5.56758M1.49064 5.3237L1.45464 6.00781C1.38568 7.31793 1.3512 7.97299 1.47599 8.59236C1.58659 9.1413 1.78861 9.66775 2.07362 10.1498C2.39521 10.6936 2.85904 11.1575 3.78672 12.0851L5.80464 14.103C6.90141 15.1998 7.4498 15.7482 8.0378 16.0478C9.2262 16.6533 10.6327 16.6533 11.8211 16.0478C12.4091 15.7482 12.9575 15.1998 14.0542 14.103C15.151 13.0063 15.6994 12.4579 15.999 11.8699C16.6045 10.6815 16.6045 9.27503 15.999 8.08663C15.6994 7.49863 15.151 6.95024 14.0542 5.85347L12.0363 3.83555C11.1086 2.90787 10.6448 2.44403 10.1009 2.12245C9.61893 1.83744 9.09247 1.63541 8.54353 1.52482C7.92416 1.40003 7.2691 1.43451 5.95898 1.50346L5.27488 1.53947C4.00421 1.60635 3.36887 1.63979 2.87657 1.90382C2.44292 2.13638 2.08755 2.49175 1.85499 2.92539C1.59096 3.4177 1.55752 4.05304 1.49064 5.3237ZM5.96716 5.5978C5.96716 5.82792 5.78062 6.01447 5.5505 6.01447C5.32038 6.01447 5.13383 5.82792 5.13383 5.5978C5.13383 5.36768 5.32038 5.18113 5.5505 5.18113C5.78062 5.18113 5.96716 5.36768 5.96716 5.5978Z" stroke="#170033" stroke-width="2" stroke-linecap="round" stroke-linejoin="round"/>
</svg>
