<svg width="20" height="16" viewBox="0 0 20 16" fill="none" xmlns="http://www.w3.org/2000/svg">
<path d="M17.3929 11.2734V5.27344C17.3929 3.87331 17.3929 3.17324 17.1204 2.63846C16.8807 2.16806 16.4983 1.7856 16.0279 1.54592C15.4931 1.27344 14.793 1.27344 13.3929 1.27344H6.3929C4.99277 1.27344 4.29271 1.27344 3.75793 1.54592C3.28752 1.7856 2.90507 2.16806 2.66539 2.63846C2.3929 3.17324 2.3929 3.87331 2.3929 5.27344V11.2734M17.3929 11.2734L2.3929 11.2734M17.3929 11.2734C17.8531 11.2734 18.2262 11.6465 18.2262 12.1068C18.2262 13.4875 17.1069 14.6068 15.7262 14.6068L4.05957 14.6068C2.67886 14.6068 1.55957 13.4875 1.55957 12.1068C1.55957 11.6465 1.93267 11.2734 2.3929 11.2734" stroke="#170033" stroke-width="2" stroke-linecap="round" stroke-linejoin="round"/>
</svg>
