<svg width="20" height="20" viewBox="0 0 20 20" fill="none" xmlns="http://www.w3.org/2000/svg">
<path d="M15.7217 15.8983C15.637 14.4365 14.3656 13.276 12.8096 13.276H6.97624C5.4202 13.276 4.14877 14.4365 4.06406 15.8983M15.7217 15.8983C17.2672 14.3856 18.2262 12.2761 18.2262 9.94271C18.2262 5.34034 14.4953 1.60938 9.8929 1.60938C5.29053 1.60938 1.55957 5.34034 1.55957 9.94271C1.55957 12.2761 2.51863 14.3856 4.06406 15.8983M15.7217 15.8983C14.219 17.3693 12.1619 18.276 9.8929 18.276C7.62396 18.276 5.5668 17.3693 4.06406 15.8983M12.3929 8.27604C12.3929 9.65675 11.2736 10.776 9.8929 10.776C8.51219 10.776 7.3929 9.65675 7.3929 8.27604C7.3929 6.89533 8.51219 5.77604 9.8929 5.77604C11.2736 5.77604 12.3929 6.89533 12.3929 8.27604Z" stroke="#170033" stroke-width="2" stroke-linecap="round" stroke-linejoin="round"/>
</svg>
