<svg width="18" height="18" viewBox="0 0 18 18" fill="none" xmlns="http://www.w3.org/2000/svg">
<path d="M14.1959 3.63811C12.8386 2.28087 10.9636 1.44141 8.89258 1.44141C6.82151 1.44141 4.94651 2.28087 3.58928 3.63811M14.1959 3.63811C15.5531 4.99534 16.3926 6.87034 16.3926 8.94141C16.3926 11.0125 15.5531 12.8875 14.1959 14.2447M14.1959 3.63811L10.6603 7.17364M10.6603 7.17364C10.2079 6.72123 9.58293 6.44141 8.89258 6.44141C8.20222 6.44141 7.57722 6.72123 7.12481 7.17364M10.6603 7.17364C11.1128 7.62605 11.3926 8.25105 11.3926 8.94141C11.3926 9.63176 11.1128 10.2568 10.6603 10.7092M7.12481 7.17364C6.6724 7.62605 6.39258 8.25105 6.39258 8.94141C6.39258 9.63176 6.6724 10.2568 7.12481 10.7092M7.12481 7.17364L3.58928 3.63811M7.12481 10.7092C7.57722 11.1616 8.20222 11.4414 8.89258 11.4414C9.58293 11.4414 10.2079 11.1616 10.6603 10.7092M7.12481 10.7092L3.58928 14.2447M10.6603 10.7092L14.1959 14.2447M14.1959 14.2447C12.8386 15.6019 10.9636 16.4414 8.89258 16.4414C6.82151 16.4414 4.94651 15.6019 3.58928 14.2447M3.58928 14.2447C2.23204 12.8875 1.39258 11.0125 1.39258 8.94141C1.39258 6.87034 2.23204 4.99534 3.58928 3.63811" stroke="#170033" stroke-width="2" stroke-linecap="round" stroke-linejoin="round"/>
</svg>
