<svg width="28" height="28" viewBox="0 0 28 28" fill="none" xmlns="http://www.w3.org/2000/svg">
<path d="M14.3027 18V14M14.3027 14V10M14.3027 14H10.3027M14.3027 14H18.3027M14.3027 26C10.5752 26 8.71144 26 7.24127 25.391C5.28104 24.5791 3.72365 23.0217 2.9117 21.0615C2.30273 19.5913 2.30273 17.7275 2.30273 14C2.30273 10.2725 2.30273 8.4087 2.9117 6.93853C3.72365 4.97831 5.28104 3.42092 7.24127 2.60896C8.71144 2 10.5752 2 14.3027 2C18.0303 2 19.894 2 21.3642 2.60896C23.3244 3.42092 24.8818 4.97831 25.6938 6.93853C26.3027 8.4087 26.3027 10.2725 26.3027 14C26.3027 17.7275 26.3027 19.5913 25.6938 21.0615C24.8818 23.0217 23.3244 24.5791 21.3642 25.391C19.894 26 18.0303 26 14.3027 26Z" stroke="#170033" stroke-width="2.66667" stroke-linecap="round" stroke-linejoin="round"/>
</svg>
