<svg width="188" height="34" viewBox="0 0 188 34" fill="none" xmlns="http://www.w3.org/2000/svg">
<path d="M16.3393 11.7937C16.5578 11.3302 16.5145 10.7804 16.2264 10.3554L9.94997 1.16406L8.42529 4.38631L10.1589 6.86423V6.86903L13.6933 11.9401L13.6981 11.9689C13.7125 12.065 13.6981 12.1634 13.65 12.2595C13.602 12.3603 13.5348 12.4371 13.4508 12.4876L13.4267 12.502L4.245 13.2175L2.72272 16.4325L13.8037 15.4673C14.3151 15.4217 14.769 15.1071 14.9874 14.6437L16.3369 11.7937H16.3393Z" fill="#875EF8"/>
<path d="M18.4378 11.1146L21.564 11.5156C22.073 11.5804 22.5821 11.3691 22.8966 10.9633L29.6989 2.15377L26.1621 1.69996L24.3421 4.11306H24.3373L20.606 9.04487L20.5796 9.05688C20.4907 9.1001 20.3923 9.11451 20.289 9.10251C20.1786 9.0881 20.0826 9.04728 20.0105 8.98485L19.9889 8.96564L16.4737 0.453801L12.9465 0L17.2877 10.2406C17.487 10.7136 17.9288 11.0474 18.4378 11.1122V11.1146Z" fill="#875EF8"/>
<path d="M22.8584 13.3019L23.4418 16.3993C23.5379 16.9036 23.8957 17.3238 24.3783 17.4966L34.8566 21.2423L34.1963 17.7391L25.4948 14.7258L25.4756 14.7066C25.4083 14.6369 25.3627 14.5481 25.3435 14.4449C25.3219 14.3344 25.3315 14.2336 25.3699 14.1423L25.3819 14.1159L32.3907 8.14202L31.7328 4.64844L23.3362 11.9429C22.9496 12.2791 22.7671 12.8025 22.8632 13.3043L22.8584 13.3019Z" fill="#875EF8"/>
<path d="M22.8393 18.0078C22.5992 18.0078 22.3591 18.0678 22.1454 18.1855L19.3794 19.6982C18.9304 19.9431 18.6398 20.4161 18.6254 20.9275L18.3013 32.0517L21.4299 30.3398L21.6076 21.134L21.6196 21.11C21.6652 21.0236 21.7348 20.9539 21.8285 20.9035C21.9269 20.8483 22.0253 20.8267 22.1238 20.8339H22.1526L29.9993 25.6553L33.1184 23.9481L23.5861 18.2143C23.358 18.0774 23.0986 18.0078 22.8393 18.0078Z" fill="#875EF8"/>
<path d="M14.9876 16.8472C14.6154 16.4966 14.0775 16.3669 13.5853 16.511L2.90531 19.6396L5.49848 22.0863L8.38698 21.2051H8.39178L11.8974 20.1438L0 31.9115L4.58847 31.9356L14.1208 22.5065L12.6057 28.7877L15.1916 31.2272L17.6984 20.3911C17.8136 19.8917 17.6552 19.3611 17.2806 19.0105L14.9876 16.8472Z" fill="#42E2E9"/>
<path d="M75.2644 23.9332H78.8973V11.5244H87.2818V8.17969H66.8774V11.5244H75.2644V23.9332Z" fill="#170033"/>
<path d="M60.6032 8.31641H57.2825C56.7879 8.31641 56.3317 8.55171 56.0627 8.94549L45.923 23.7938H50.8116L58.944 11.8604L62.0222 16.3696L67.1654 23.7962H71.9651L61.8253 8.94789C61.5564 8.55411 61.1002 8.31881 60.6056 8.31881L60.6032 8.31641Z" fill="#170033"/>
<path d="M151.727 8.17818C149.83 8.17818 148.586 9.61403 147.926 12.5698L145.878 19.9675L143.842 12.613C143.172 9.62604 141.923 8.17578 140.029 8.17578C136.713 8.17578 135.169 9.92617 135.169 13.6815V23.9293H138.507V13.0884C138.507 12.4617 138.886 12.0727 139.498 12.0727C140.149 12.0727 140.571 12.8315 141.011 14.7812L143.136 21.886C143.594 23.9293 144.913 23.9293 145.347 23.9293H146.411C146.845 23.9293 148.164 23.9293 148.617 21.91L150.754 14.7572C151.187 12.8291 151.612 12.0751 152.262 12.0751C152.872 12.0751 153.252 12.4641 153.252 13.0908V23.9317H156.589V13.6839C156.589 9.92857 155.045 8.17818 151.729 8.17818H151.727Z" fill="#170033"/>
<path d="M161.826 8.31641H158.757V23.7938H161.826V8.31641Z" fill="#170033"/>
<path d="M182.943 14.2392V10.1069C180.847 8.90639 178.179 8.24609 175.425 8.24609C169.034 8.24609 163.833 11.7325 163.833 16.0184C163.833 20.3043 169.034 23.7907 175.425 23.7907C178.179 23.7907 180.847 23.1304 182.943 21.9299V17.7976C181.687 19.1638 178.969 20.4676 175.425 20.4676C170.727 20.4676 167.082 18.0761 167.082 16.0184C167.082 13.9607 170.727 11.5692 175.425 11.5692C178.969 11.5692 181.687 12.8706 182.943 14.2392Z" fill="#170033"/>
<path d="M133.214 8.17969H112.81V11.5244H133.214V8.17969Z" fill="#170033"/>
<path d="M115.607 18.8165L114.817 18.8237L115.605 18.562C115.66 17.5607 116.522 16.7588 117.566 16.7588H131.356V13.4141H118.066C115.9 13.4141 113.984 14.7178 113.182 16.7348C112.935 17.3566 112.81 18.0097 112.81 18.6724C112.81 19.3351 112.935 19.9858 113.182 20.6101C113.982 22.627 115.9 23.9308 118.066 23.9308H133.214V20.5861H117.566C116.534 20.5861 115.679 19.8033 115.607 18.8165Z" fill="#170033"/>
<path d="M92.9219 8.24931H89.5771V23.8636H92.9219V16.9604H107.057V23.7963H110.402V8.17969H107.057V13.3756H92.9219V8.24931Z" fill="#170033"/>
<path d="M183.829 6.076C184.684 6.076 185.376 6.76752 185.376 7.6223V12.7846H188V8.13373C188 7.80479 187.87 7.49024 187.638 7.25974L184.19 3.81178C183.957 3.57888 183.642 3.44922 183.316 3.44922H178.665V6.0736H183.827L183.829 6.076Z" fill="#42E2E9"/>
</svg>
